<svg id="Layer_1" data-name="Layer 1" xmlns="http://www.w3.org/2000/svg" viewBox="0 0 922.63 891.52">
  <defs>
    <style>
      .cls-1 {
        fill: #1890ff;
        fill: #fff;
      }
    </style>
  </defs>
  <g>
    <path class="cls-1" d="M-1331.47,610.06c1.38-5,2.84-10.06,4.12-15.12,5.39-21.41,10.7-42.84,16.14-64.23a5.63,5.63,0,0,1,2.28-3.11c7.79-4.8,15.65-9.47,23.55-14.08a4.58,4.58,0,0,1,3.09-.43q15.35,3.69,30.62,7.63a5.53,5.53,0,0,1,2.89,2.16c2,2.93,3.69,6,5.62,9.23,3.26-1.93,6.31-3.85,9.48-5.55a5.06,5.06,0,0,1,3.32-.49q17.85,4.32,35.64,8.89a5,5,0,0,1,2.71,2q7.2,11.68,14.14,23.53a4.62,4.62,0,0,1,.6,3.1q-10,40.3-20.12,80.57a4.66,4.66,0,0,1-.51.8l-29.92-7.46c.64-2.77,1.22-5.26,1.88-8.07l-73.21-18.31c-.72,2.71-1.38,5.18-2.14,8l-30.18-7.51Zm114.81-17.46c1.42-5.7,2.75-11,4.07-16.36.72-2.9-1.73-7-4.6-7.76-3.33-.85-6.72-1.52-10-2.58a6.92,6.92,0,0,0-6.7,1.07,6,6,0,0,0-2.72,3.78c-1.21,5.25-2.55,10.46-3.87,15.86Zm-54.17-13.55c1.41-5.56,2.84-10.79,4-16.08a8.09,8.09,0,0,0-.59-4.07c-.93-2.79-3-4.19-5.94-4.52a51.87,51.87,0,0,1-5.27-1.29c-2.06-.46-6.6,2.1-7.11,4.09-1.44,5.58-2.78,11.19-4.23,17.05Z" transform="translate(1331.47 -202.64)"/>
    <path class="cls-1" d="M-992.49,1094.16v-13.8c3.77,1.2,4.37-1.39,5.31-3.78,3.75-9.53,7.58-19,11.48-28.76l-2.22-.61v-13.13h31.8v13.26l-2.64.27c.32,1,.57,1.81.9,2.65,3.52,8.8,7.07,17.58,10.55,26.39.9,2.29,1.49,4.76,4.94,3.8v13.71h-22.8c-.06-4.05-.15-8.09-.15-12.13,0-.5.43-1,.69-1.48s.84-1,.73-1.2c-.22-.54-.79-1.3-1.23-1.31-4.74-.1-9.48-.12-14.21,0-.44,0-.82,1.41-1.23,2.16,2.21.52,1.29,2.31,1.34,3.58.11,3.44.05,6.89.06,10.34ZM-966,1066h7.34c-1.21-3-2.32-5.77-3.67-9.15Z" transform="translate(1331.47 -202.64)"/>
    <path class="cls-1" d="M-912.67,1094.16c-2.67-2.8-5.37-5.56-8-8.4a4.23,4.23,0,0,1-1.24-2.36c-.14-3.35-.06-6.72-.06-10.27h16.74c0,1.28,0,2.62,0,3.95,0,2.19,1.16,3.35,3.34,3.39a27.27,27.27,0,0,0,6.2-.11,4.82,4.82,0,0,0,2.89-2.59,8,8,0,0,0,.07-4.09,3.08,3.08,0,0,0-3.39-2.81c-4.67,0-9.33.12-14-.07a6.45,6.45,0,0,1-3.78-1.54c-2.8-2.55-6.36-4.94-7.73-8.19s0-7.34-.45-11c-.58-4.85,1.39-8.06,4.69-11.45,3.47-3.57,6.91-5.26,11.93-4.88,5.84.46,11.74,0,17.61.18a9.38,9.38,0,0,1,3.82,1.53,9.51,9.51,0,0,1,1.86,1.79c6.86,6.86,7.17,7.78,5.9,17.9h-16.41c0-1.45,0-2.8,0-4.16-.05-2.25-1.1-3.53-3.48-3.5-1.9,0-3.8,0-5.7,0a3.93,3.93,0,0,0-1.5.2c-1.68.76-2.56,4-1.82,7,.47,1.94,1.86,2.67,3.87,2.63,4.49-.09,9,.05,13.47-.07a4.57,4.57,0,0,1,4,1.74,11.85,11.85,0,0,0,2.33,2.41c5,3.43,5.51,8.22,5.67,13.89.2,6.66-1.2,11.88-6.7,15.82a18,18,0,0,0-2.72,3Z" transform="translate(1331.47 -202.64)"/>
    <path class="cls-1" d="M-855.65,1094.16c-2.52-2.68-5.11-5.3-7.5-8.08a6.05,6.05,0,0,1-1.44-3.34c-.19-3.16-.07-6.34-.07-9.66H-848c0,1.44,0,2.87,0,4.3a2.88,2.88,0,0,0,3.08,3.08c2.16.07,4.32.11,6.48,0a2.94,2.94,0,0,0,3-3.16c0-.86,0-1.72,0-2.59-.05-2.55-1.24-3.8-3.76-3.82-4.67,0-9.33.07-14-.06a5.36,5.36,0,0,1-3.14-1.24c-2.22-1.91-4.18-4.12-6.36-6.09a5.55,5.55,0,0,1-2-4.72c.14-4.49,0-9,.1-13.47a5.3,5.3,0,0,1,1.27-3.15c7.49-8.33,7.51-8.31,18.62-8.31,4.83,0,9.67-.08,14.51.06a5.35,5.35,0,0,1,3.13,1.31c2.43,2.2,4.72,4.56,7,7a4.14,4.14,0,0,1,1.23,2.38c.13,3.44.06,6.9.06,10.57h-16.6c0-1.41,0-2.85,0-4.29-.09-2.11-1.09-3.37-3.36-3.35-2,0-4,0-6,0a3,3,0,0,0-3.26,3.16c0,1.12,0,2.24,0,3.36,0,2.21,1.2,3.31,3.4,3.31,4.75,0,9.5-.09,14.25.07a5.46,5.46,0,0,1,3.33,1.38c2.81,2.67,6.36,5.13,7.83,8.47,1.34,3,.05,7.16.45,10.74.53,4.71-.81,8.3-4.61,11.19a41.59,41.59,0,0,0-4.83,5Z" transform="translate(1331.47 -202.64)"/>
    <path class="cls-1" d="M-807.45,1094.16v-13.48l3.41-.39v-32.67l-3.29-.27V1034h44.15v15.68c-4.29,0-8.56.06-12.83-.08-.42,0-.81-1.22-1.33-2.05h-9.74v10.16l3.47-2.84h12.14v18.17c-4.14,0-8.17,0-12.2,0-.39,0-.76-.69-1.16-1-.56-.51-1.15-1-2.27-2v10.29h10c.16-.57.35-1.26.56-2.06h13.71v15.93Z" transform="translate(1331.47 -202.64)"/>
    <path class="cls-1" d="M-1004.9,866a20.51,20.51,0,0,1,4-.84c7.42,0,14.84.1,22.26.2,3.45,0,6.9.33,10.34.21,1.12,0,2.21-1,3.32-1.57-.69-1-1.17-2.27-2.1-2.93a33.06,33.06,0,0,0-5.67-3.09c-2.23-1-2.88-2.51-2.27-4.78.33-1.25.56-2.52.83-3.79.66-3.14,0-4.62-2.83-6.13a12.66,12.66,0,0,0-11.7-.27c-5.52,2.51-11.19,4.72-17.39,4.36a15.93,15.93,0,0,1-6.36-1.8c-2.41-1.28-2.36-3.48-.26-5.25a19.68,19.68,0,0,1,2.14-1.46c3.58-2.26,4.18-5,1.18-8a49.54,49.54,0,0,0-8-6.11c-5.54-3.65-11.57-6.65-16.72-10.76-5.78-4.62-10.76-10.21-16.17-15.3-4-3.82-4.68-8.94-5.33-13.95-.32-2.43-1.31-3.18-3.53-3.42a32.64,32.64,0,0,1-6.28-1.44c-2.24-.71-3.17-2.49-3.27-4.78-.25-5.52,4.22-12.61,9.57-14.1a9.3,9.3,0,0,1,6.85.8,51.79,51.79,0,0,1,10.11,8.7c2.79,3.11,4.66,7,7.21,10.39a22,22,0,0,0,5.57,5.48c2.49,1.53,4.33.27,4.57-2.66a22.75,22.75,0,0,1,3.46-10.44c.56-.89.53-3-.13-3.66a37.63,37.63,0,0,0-8-6.69c-3-1.65-4.43-3.7-4.38-6.93a12.84,12.84,0,0,1,5.58-10.58,5.89,5.89,0,0,1,6.85-.3,48.42,48.42,0,0,1,8.5,6.63c5.21,5.22,8.22,11.85,11.1,18.54s5.75,13.11,8.86,19.56a50.5,50.5,0,0,0,4.83,7.63c.49.68,1.72.84,2.62,1.25.29-.86.94-1.78.82-2.58-.71-4.59-1.4-9.2-2.48-13.71-2-8.39-4.82-16.62-6.27-25.08-2.07-12.07-3.25-24.29-4.75-36.45q-3-24.66-6-49.35c-.71-6.08-1.14-12.2-1.78-18.29a18.49,18.49,0,0,1,3.22-12.77c2-2.89,3.64-5.73,2-9.53-1.12-2.55,1-4.25,2.26-6.34,4-6.81,5.61-14.29,2.42-21.81-2-4.61-4.45-9.35-7.87-12.92-6.24-6.51-10.36-14.17-14.21-22.08-1.7-3.48-2.9-7.2-4.62-10.66a11.86,11.86,0,0,0-3.56-4.34c-8.31-5.82-16-12.58-25.53-16.6-5.11-2.16-8.82-5.82-9.12-11.81-.17-3.42,1.36-4.91,4.76-5a25.06,25.06,0,0,1,13.6,3.57c4.26,2.44,8.37,5.15,12.43,7.91,3.27,2.22,7.66,2.18,10.42-.6a4.83,4.83,0,0,0,1.26-3.21c-.2-6.83-.69-13.61-4.29-19.72a20.92,20.92,0,0,1-2.22-4.95c-1.62-6.08-4.61-11.47-7.93-16.73a22.65,22.65,0,0,1-2.59-18.88c.68-2.51,2.56-3.44,4.77-3.71a38,38,0,0,1,5.94,0,6.53,6.53,0,0,1,6.21,4.67,70,70,0,0,1,2.74,8.88c1.24,5.61,4.38,10.72,4.33,16.68a3.42,3.42,0,0,0,.78,1.89q6,7.62,12.05,15.19c.14.17.42.22,1,.5,0-2.49.1-4.77,0-7-.64-11.72-1.07-23.46-2.1-35.15-.62-7.11-2.33-14.11-3.27-21.2a47.14,47.14,0,0,1-.28-10.28,8.51,8.51,0,0,1,6.83-7.84c4-1,7.41.37,9.32,3.86,2,3.74,4.07,7.74,4.88,11.86,1.68,8.62,2.43,17.41,3.8,26.1,1.56,9.87,3.3,19.72,5.16,29.54.28,1.5,1.64,2.79,2.5,4.18,1.1-1.25,2.7-2.32,3.23-3.78,2.58-7.12,5.07-14.28,7.22-21.53a68.57,68.57,0,0,1,12.7-24.37,17.22,17.22,0,0,1,2.61-2.51c4.37-3.5,8.95-1.86,9.51,3.73a64.71,64.71,0,0,1-3.37,29.05c-3,8.09-6,16.16-8.76,24.33-2.16,6.44-4.55,12.88-4.41,19.84a14.8,14.8,0,0,0,4,10.12c3.33,3.58,7.51,5.1,12,3a73.28,73.28,0,0,0,12.66-7.87,15.76,15.76,0,0,1,16.06-2.42c8.4,3.1,10.11,12.5,3.36,18.41-4.09,3.58-9.19,4.56-14.36,5.26a29.74,29.74,0,0,1-5.15.42c-3-.13-4.87,1.34-6.14,3.86-.74,1.46-1.5,2.92-2.26,4.37-4.24,8.06-11.46,11.79-19.91,13.87a10.89,10.89,0,0,0-5,2.44,23,23,0,0,0-6.75,13.66c-.52,4.11-1.13,8.2-1.65,12.31a27.82,27.82,0,0,0-.23,3.87c.09,4.73,2.31,7.07,6.81,8.47s8.82,3.34,13.19,5.11a12,12,0,0,1,2.36,1.58c6,4.34,8.66,10,6.29,17.32-2.17,6.72-3.9,13.66-6.82,20-4.62,10.07-5.78,20.51-5.24,31.32.61,12.41,1.09,24.83,2.08,37.21.53,6.68,1.93,13.3,3.15,19.91.23,1.24,1.47,2.3,2.24,3.44.73-1.11,1.9-2.15,2.11-3.35,1.4-8.14,3.4-16.3,3.68-24.5.47-13.37,4.24-25.63,10.09-37.39,3.28-6.61,8.54-11.41,15-14.86,3.69-2,7.17-1.65,10.32,1.08s4.43,5.86,2.77,9.92a24.45,24.45,0,0,0-1.16,4,4.55,4.55,0,0,0,1.34,4.68c3.67,3.46,2.31,9.38-2.35,11.54a26.88,26.88,0,0,0-6.75,4.13c-2.85,2.57-2.94,5.15-.78,8.33,1.39,2.07,3.08,3.94,4.56,6,2.49,3.41,2.61,5.19-.28,8.26-3.24,3.45-7,6.41-10.28,9.82a15.25,15.25,0,0,0-3.47,5.56c-1,2.89,1.06,4.77,4,4,2-.52,3.88-1.42,5.84-2.1a22.64,22.64,0,0,1,4.19-1.26c2.88-.41,4.8,1.32,4.5,4.2-.4,3.94-1.9,7.39-5.64,9.32-2.45,1.27-4.33,2.66-5.23,5.61-.64,2.08-2.54,3.85-4.1,5.56-2,2.23-4.28,4.27-6.45,6.37a14.17,14.17,0,0,0-4.37,12.46c.45,3.66,2.35,4.67,5.61,3a66.4,66.4,0,0,0,7.6-4.9c2.88-2,5.52-4.47,8.51-6.33a7.91,7.91,0,0,1,5.07-1.05c6.06,1.05,9.62,8.33,7,13.87-3,6.41-8.35,8.71-15.16,6.52-7.5-2.41-8.77-1.88-13.27,4.66-6.22,9-8.8,18.84-6.73,29.7.36,1.88.5,4.5,3,4.57,2.62.07,2.85-2.62,3.35-4.56.59-2.34.94-4.74,1.47-7.1.83-3.68,2.85-5.46,6.62-5.77a28.83,28.83,0,0,1,5.17-.07c.78.08,2.16,1,2.11,1.28-.15,1-.72,2.49-1.42,2.67-2.69.7-2.9,2.78-3,4.82-.18,2.66,0,5.35-.11,8a14,14,0,0,1-6.05,11.2,7.25,7.25,0,0,1-8.72.26,16.27,16.27,0,0,1-6.94-9.35,6.05,6.05,0,0,0-1.65-2.77c-2.4-2-4.88-1.07-5.1,2a50.77,50.77,0,0,0,0,9.55c.67,6.08,1.44,12.17,2.66,18.15,1.12,5.44,2.73,6.63,8.24,6.6a127.4,127.4,0,0,0,13.65-1c4.24-.48,6.78.41,8.42,3.47,1.24,2.31.74,3.74-1.89,4.06-3.58.43-7.22.38-10.83.54s-7.4.32-11.1.54a4,4,0,0,0-2.19.67c-.81.64-1.78,1.54-1.88,2.43-.07.57,1.21,1.75,2,1.9,4.91.87,9.84,1.72,14.8,2.21,4.46.44,9,.3,13.44.64A17.91,17.91,0,0,1-891,897.17c2.52,2.07,2.33,4.06-.76,5.13a21.25,21.25,0,0,1-7.55,1.51c-8-.32-16.09-.45-24-1.77-15-2.53-30-2.73-45.16-2.15-12.25.46-24.5.71-36.76.83a24.57,24.57,0,0,1-7.78-1.58c-2.22-.74-2.23-2.27-.22-3.47a10.46,10.46,0,0,1,2.63-1c10-2.66,20-5.26,30-7.95a5.64,5.64,0,0,0,4-4.68,31.55,31.55,0,0,0,.62-7.68,3.76,3.76,0,0,0-2.55-2.54c-4.94-.7-9.92-1.21-14.9-1.47a21.68,21.68,0,0,1-11.5-3.58Zm12.17-431-1-.47c-1.66,2.13-3.28,4.28-5,6.38-1.46,1.79-1.88,3.48-.4,5.57a9.71,9.71,0,0,1,1.41,3.85q3.17,18.75,6.21,37.51c1,6.1,0,12.5,2.61,18.36,1.71,3.85,3.55,7.65,5.37,11.46,1.89,4,.38,9.18-3.25,11.07s-7,.18-9.4-4.32a11.34,11.34,0,0,0-.57-1.16c-1.94-2.8-3.58-5.89-5.92-8.32-3.17-3.28-6.81-6.09-8.56-10.5a2.84,2.84,0,0,0-.92-1.23,15.69,15.69,0,0,0-2.16-1,7.06,7.06,0,0,0-.51,2.35,6.16,6.16,0,0,0,1.06,2.6c1.76,2.55,3.77,4.95,5.42,7.57,1.12,1.79,2.46,3.82,2.57,5.8.48,9.14,1.09,18.41-5.71,26a14.7,14.7,0,0,0-1.71,2.59c-1.85,3.22-1.72,5.5.83,8.24a48.74,48.74,0,0,0,5.94,5.37c4.11,3.17,7.07,7,8.23,12.17a21.72,21.72,0,0,0,1.35,3.63,6.73,6.73,0,0,0,6.12,4.48c2.62.1,4-1.95,5-4,1.66-3.5,2.88-7.21,4.62-10.66,3.32-6.57,1.15-12-3.08-17.14-2-2.38-4.33-3.57-7.49-3a20,20,0,0,1-5.15.45,21.21,21.21,0,0,1-4.44-1.42c.77-1.24,1.25-2.89,2.35-3.65,6.73-4.67,13.57-9.18,20.44-13.64a14.59,14.59,0,0,1,4.54-1.81c2.79-.67,3.79.16,3.52,3-.2,2.22-.81,4.4-1.15,6.62A127.77,127.77,0,0,0-973.35,551c-.25,5.48,2.78,8.87,8.23,9.93,6,1.16,11.7-.22,17.2-2.38,5-2,5.37-5,1.33-8.45-8.87-7.69-11.93-17.85-11.26-29A62.63,62.63,0,0,1-948,490.92c1.15-1.8,2.07-3.94.37-5.75-2-2.12-1.56-4.2-.66-6.43,1.27-3.12,2.7-6.17,3.88-9.31,1.53-4.08,1.53-9.47-.13-12.19-.69,2.23-1.39,4-1.8,5.9-1.7,7.68-3.61,15.17-8.18,21.88-3.52,5.17-4.87,11.32-5.92,17.52a45.69,45.69,0,0,1-3.24,11.35c-1.95,4.29-6.92,5.08-10,1.59a36.94,36.94,0,0,1-6.69-10.3c-1.63-4-2.11-8.48-2.94-12.79-1.54-8.05-3.1-16.09-4.4-24.18C-989.55,457.16-991.09,446.08-992.73,435Zm33.55,216.2-.75.16c0,3.25.33,6.55-.07,9.75a83.37,83.37,0,0,1-2.7,14.15c-1.16,3.82-4,4.4-7.41,2.62a5.43,5.43,0,0,1-3.36-5.28c0-5.86-.1-11.73,0-17.59.05-2.6-.86-4.08-3.52-4.41s-5.12-.92-7.69-1.07c-3.69-.22-7.4-.21-11.1-.13-.67,0-1.31.87-2,1.33a7.41,7.41,0,0,0,1.47,1.58,37.89,37.89,0,0,0,4.79,2.55,6.52,6.52,0,0,1,4.18,6.78c-.18,4.3-.58,8.59-.82,12.88-.29,5.31-.94,10.65-.65,15.93.22,4,2.89,5.84,7,5.62,5.34-.28,10-1.92,13.36-6.62,4.07-5.65,8.09-11.43,13.95-15.52,1.46-1,.88-2.29.43-3.7a28.53,28.53,0,0,1-1.48-6.68A25.78,25.78,0,0,0-959.18,651.21Zm-16.54-29.72c0,4.29-.28,8.11.07,11.88.42,4.54,2.61,6.27,7.14,6.56a3.27,3.27,0,0,0,3.7-2.52c1-3-.66-8.4-3.42-9.94a5.19,5.19,0,0,1-3-4.76c0-5.59.25-11.19.26-16.78,0-4.12.33-8.34-.45-12.32-.9-4.54-5.78-6.73-10.45-5.49-5.95,1.57-8,4.13-6.91,9.08.32,1.45,1.29,3.26,2.47,3.81.84.4,2.52-1.08,3.86-1.63,1-.43,2.27-1.19,3.18-.94.7.19,1.35,1.69,1.46,2.67C-977,608.05-976.36,615-975.72,621.49ZM-961.78,733c2-5.14,2.59-9.36-.28-13.56a13.51,13.51,0,0,1-1.61-3.78c-.71-2.42-.13-4.37,2.24-5.7a6.07,6.07,0,0,0,2.37-2.29,14.28,14.28,0,0,0-.22-13.88,3.09,3.09,0,0,0-4.64-1.37c-9.43,5.67-14.15,13.53-9.22,23.73C-970.34,722-965.91,727-961.78,733Zm-52.47,44.82c-.53.48-2.09,1.29-2.6,2.53-.62,1.5-1.12,4-.33,5a104.11,104.11,0,0,0,10.23,10.46,22.31,22.31,0,0,0,6.24,3.93c2.1.9,3.43-.42,2.86-2.65a27.19,27.19,0,0,0-2.09-5c-.93-1.93-2.3-3.71-2.89-5.72A12,12,0,0,0-1014.25,777.86Zm86.65-68.77c1.65,0,2.67.25,3.48-.05a51.74,51.74,0,0,0,8-3.53c.87-.51,1.29-2.25,1.44-3.48.24-1.94,0-3.94.13-5.9.11-1.54.67-3,.71-4.58,0-1.1-.14-2.76-.82-3.16s-2.45,0-3.18.69c-1.72,1.61-3.63,3.35-4.54,5.44C-924.38,699.07-925.78,703.87-927.6,709.09Zm-42.55,57c1,4.9,3.22,8.82,7.46,11.36,1.91,1.13,3.63.28,5.2-1s2.14-2.69,1.27-4.32a115.39,115.39,0,0,0-6.71-11.5c-2-2.78-4.61-2.28-5.93.83A34.77,34.77,0,0,0-970.15,766.08Zm-11-48.2a14.53,14.53,0,0,0-4.69-10.35c-.57-.54-1.75-1.18-2.2-.94a2.94,2.94,0,0,0-1.31,2.24c.14,3.51.61,7,.79,10.51.13,2.36,0,4.73,0,7.1,0,.81-.06,2.23.22,2.32a14.14,14.14,0,0,0,5.42.88c.73-.09,1.63-2.08,1.73-3.26C-980.95,723.57-981.13,720.72-981.13,717.88Zm50.27,72.9-.41-.15a30.38,30.38,0,0,0-.38-3.32c-.84-3.64-3-4.49-6-2.24-1.78,1.33-3.32,3-5,4.42-1.42,1.17-1.23,2.35.19,3,3.28,1.58,3.71,4.34,3.88,7.51.06,1.16,1.09,2.27,1.67,3.4,1.12-.75,2.85-1.28,3.22-2.3C-932.51,797.77-931.78,794.24-930.86,790.78Zm5.25-247c3.18,0,6.2.15,9.18-.09,1.09-.08,2.76-.93,3-1.75a5,5,0,0,0-.79-4c-1.42-1.73-3.6-1.9-5.71-1.15C-923.19,538-924.57,540.64-925.61,543.75ZM-1039,797.54c2.53,2.73,4.9,5.36,7.35,7.9a5.77,5.77,0,0,0,2.33,1.51,2.53,2.53,0,0,0,2.08-.35,1.93,1.93,0,0,0,0-1.86,30.47,30.47,0,0,0-4.35-5.94C-1033.73,796.8-1036.48,796.07-1039,797.54Zm-7.85-17.35c2.2-.61,2.78-1.37,1.75-2.81a61.22,61.22,0,0,0-5.48-6.45,3.87,3.87,0,0,0-2.58-1c-.81,0-1.6.7-2.4,1.09a8.56,8.56,0,0,0,1,1.88,52.24,52.24,0,0,0,3.84,4.17C-1049.57,778.19-1048.18,779.15-1046.87,780.19Zm22.74-295.85.46-.5c0-3,0-6,0-8.94,0-2-1.09-2.54-2.9-1.88a19.38,19.38,0,0,1-2,.65c-1.92.49-2.37,1.67-1.28,3.21C-1028,479.43-1026,481.86-1024.13,484.34Zm-21.64,43.82-.74,1.37c3.2,2.08,6.38,4.2,9.64,6.2a3.35,3.35,0,0,0,2.26.23,8.45,8.45,0,0,0,2.14-1.16c-.46-.66-.78-1.66-1.41-1.93C-1037.81,531.21-1041.8,529.71-1045.77,528.16ZM-941.54,818l-.4-.42-5.72,3.78a4,4,0,0,0-.6.48c-1.32,1.39-2.19,3-1.26,4.86.39.8,1.38,1.32,2.1,2a16.88,16.88,0,0,0,1.54-2.15c1-2,1.85-4,2.82-5.92C-942.62,819.68-942,818.85-941.54,818Zm-40.05-59.62c1.5,1.76-.39,4.49,2.63,4.66,1.89.1,3.5-2.29,3.44-5,0-2.06-1.54-3.17-3.21-2.74C-979.87,755.61-980.64,757.3-981.59,758.37Zm-20.33,71c.49,1.08.93,2.19,1.51,3.23.76,1.36,1.87,2,3.38,1.06s2.18-2.31,1.28-3.94c-.76-1.35-2-2.18-3.65-1.4C-1000.13,828.69-1000.87,829-1001.92,829.4Z" transform="translate(1331.47 -202.64)"/>
    <path class="cls-1" d="M-706.92,525.7a13.79,13.79,0,0,0,2.5-2.77c2.56-5.25,5-10.56,7.42-15.86,1.55-3.36,2.81-6.88,4.65-10.07,3.6-6.27,6.75-12.93,12.46-17.68a24.26,24.26,0,0,1,6.53-4.06c6-2.3,11.06,2.07,9.68,8.27a63.07,63.07,0,0,1-7.1,17.41c-5.71,10-11.18,20.21-16.62,30.39a15,15,0,0,0-1.81,5.84c-.25,3.33,2.46,4.93,5.33,3.27a20.45,20.45,0,0,0,4.21-3.4c4.3-4.36,8.54-8.79,12.76-13.24a28.17,28.17,0,0,1,12.12-7.66c4-1.23,6.63-.46,8.83,2.36s2.61,6,.08,9.3a58.2,58.2,0,0,1-8.75,9.07c-4.32,3.57-9,6.66-13.6,9.92-3.93,2.81-7.23,6-8.86,10.81a32,32,0,0,1-3.58,6.57,12.43,12.43,0,0,1-10.56,6c-4.8.21-5.46.8-6.81,5.51s-3.19,9.41-6.71,13a20.23,20.23,0,0,1-7.14,4.82c-6.6,2.41-9.32,6.34-8.41,13.43.17,1.37.37,2.73.53,4.1a8,8,0,0,1-2.88,7.73c-3.91,3.46-5.07,8.3-3.9,13.49a5.47,5.47,0,0,0,4.15,4.23c2,.52,4.06.78,6.1,1.14,3.83.68,5.51,2.87,5,6.76-.28,2.31-1,4.59-1,6.9,0,1.47.37,3.59,1.37,4.33,6.75,5,7.48,11.74,5.76,19-2.9,12.32-6.09,24.58-9.21,36.86-1.35,5.34-2.83,10.66-4.23,16-1.77,6.76-1,13.5-.16,20.31a139.35,139.35,0,0,1,.86,15.16c0,4.09,1,5.19,4.92,3.68a51.08,51.08,0,0,0,9.52-5c3-2,4.14-4.94,3.79-8.74a93.09,93.09,0,0,1,.57-24.78c.73-4.17,2.39-7.68,6.06-10.09,4-2.6,7.64-5.68,11.78-7.94,5.89-3.23,10-2.35,14.17,2.21,3.85,4.22,4.34,9.35,1.24,14.55a31.89,31.89,0,0,1-3.44,4.52c-2.18,2.53-2.4,4.37-.66,7.26.53.89,1.16,1.72,1.71,2.6,2.46,4,1.7,7.91-2.39,10.14a52.81,52.81,0,0,1-9.1,3.63,15.86,15.86,0,0,0-7.44,4.89c-5.71,6.69-10.51,13.88-13.21,22.34-1.53,4.77-.09,6.52,4.87,5.76,1.79-.27,3.57-.66,5.36-.87,3.58-.42,5.63,1.35,5.72,4.93,0,1.55-.17,3.11-.1,4.66.14,3.06,1.46,4.25,4.51,3.82,9.21-1.3,15.69,4,22.24,9.11.49.37.68,1.12,1.36,2.3a27.65,27.65,0,0,1-4.42,0c-7-1.27-14.07-2.65-21.1-4a1.57,1.57,0,0,0-.51-.09c-4.51.64-6.83-1.66-8-5.75-.43-1.5-1.59-1.92-3.08-1.26-6.12,2.74-12.08,5.75-15.75,11.7a152.81,152.81,0,0,0-8.56,15c-2.42,5.17-1,7.11,4.65,7.65,6.27.6,6.11.82,5.72,7.15-.52,8.16-.46,16.35-.46,24.53a5.54,5.54,0,0,0,1.71,3.28c2.89,3,2.63,5.41-1.45,6.36a95.7,95.7,0,0,1-14.56,1.88,61.82,61.82,0,0,1-8.36-.4c0-.26-.09-.52-.13-.78,1.62-.88,3.28-1.7,4.85-2.67a49.84,49.84,0,0,0,6.22-4.15c2.11-1.79,1.88-3.46-.33-5.1a15.15,15.15,0,0,1-2.57-1.72,8.77,8.77,0,0,1-2.26-3.55c-1-4.65-4.74-6.69-9.32-5.21-6.06,2-12.17,3.75-18.33,5.34-3.44.89-7,1.14-10.36-.63-.65-.35-1.06-1.16-1.58-1.76a10,10,0,0,1,2-1c2.34-.58,4.78-.82,7-1.61,2.72-.93,3.25-2.56,1.9-5-4.3-7.91-4.62-16.44-3.29-25,.54-3.49,2.92-6.7,4.5-10a14.76,14.76,0,0,1,1.19-1.69c3.37-4.89,3.4-5.32-1.14-9-3.39-2.77-5.1-6-4.87-10.51.33-6.63.14-13.29.34-19.93.09-2.69,2.28-4.45,5.15-4.77,2.68-.29,3.47,1.46,4.33,3.52a30,30,0,0,0,3.44,6.32c1.63,2.21,2.92,2,4.35-.28,1-1.54,1.69-3.22,2.69-4.73.7-1.05,1.49-2.34,2.56-2.8,2.38-1,2.26-2.54,1.4-4.38-.63-1.33-1.38-2.59-2.07-3.88a19.83,19.83,0,0,1-1.65-14.07,7.91,7.91,0,0,1,2.18-3.38c1.25-1.29,2.77-2.32,4.15-3.5a7.78,7.78,0,0,0,2.79-6.38c0-4,.39-7.93.43-11.9,0-3.44-.65-3.86-3.82-2.77-4.25,1.47-8.12,0-9.59-4.41-1.33-4-1.83-8.21-2.59-12.34-1-5.32-2.12-10.63-2.68-16a23.18,23.18,0,0,1,.91-8.59c.88-3,3.3-3.32,5.52-.94,2.44,2.61,3.19,5.92,3.18,9.34,0,3.88-.35,7.76-.51,11.64a31.32,31.32,0,0,0,.1,3.35c.13,1.84,1.17,2.58,3,2.35.6-.07,1.2-.15,1.8-.21,3.44-.31,4.83.84,5,4.26a16,16,0,0,0,3,9.25,23.29,23.29,0,0,0,1.34-4c.76-6.24,1.17-12.54,2.17-18.74.66-4.15,2.43-8.12,3.11-12.26a23.64,23.64,0,0,0-3.8-16.79c-2.6-4.08-5.88-5.17-10.48-3.67-6.45,2.09-11.19,6.31-14.72,12a11.41,11.41,0,0,1-1.79,2.51c-2.14,2-4.91,1.6-5.91-1.11a26.52,26.52,0,0,1-1-7.06c-.1-1.27.47-2.63.23-3.85s-1.1-3.15-1.71-3.16a5.82,5.82,0,0,0-4.17,1.58c-.94,1.13-1.1,3-1.28,4.63-.42,3.77-.64,7.56-1,11.34-.25,2.77.24,4.81,3.13,6.35a12.12,12.12,0,0,1,6.47,10.35,180.53,180.53,0,0,1-.4,20.41c-.15,2.13-1.53,4.34-2.84,6.17a19.49,19.49,0,0,0-3.77,10.56c-.15,3,1.18,3.78,3.81,2.25,4.29-2.48,8.19-5.46,10.76-9.86,1.07-1.84,2.66-3.2,4.85-2.61a4.36,4.36,0,0,1,2.49,2.52,4.6,4.6,0,0,1-1.62,5.56c-1.33.94-3,1.41-4.21,2.48a7.84,7.84,0,0,0-2.52,3.88c-.13.69,1.73,1.71,2.58,2.66s2.1,2,2.29,3.09a37.74,37.74,0,0,1,.77,9.51,35.69,35.69,0,0,1-2.34,9.92c-1,2.66-3.18,2.84-5.49,1.1-.62-.46-1.19-1-1.77-1.51-4.14-3.67-4.11-3.89-.4-8a8,8,0,0,0,1.55-8.47c-.72-2.06-2.24-2.6-4.09-1.44a8,8,0,0,0-4,7.12,9.92,9.92,0,0,1-3.92,8.57c-2,1.61-1.8,3.79-1.61,5.93.88,9.88,2,19.74,2.66,29.63a85.39,85.39,0,0,1-.33,12.38c-.16,2.08-1,4-3.5,4.57s-4-.84-5.24-2.81c-.71-1.16-1.57-2.22-2.36-3.32l-1,.11a17.21,17.21,0,0,0-.17,4.16,10.86,10.86,0,0,0,1.8,4c3.92,5.58,4.91,12.07,5.8,18.56a13.36,13.36,0,0,1-4.3,12c-1.68,1.61-3.35,3.24-4.88,5a5.53,5.53,0,0,0-.53,7.17c3,4.56,6.9,7.71,12.83,7.13,6.7-.66,13.39-1.61,20.1-1.78a21.41,21.41,0,0,1,9.07,2.33c2.8,1.3,2.73,4.21.13,6-2.11,1.44-4.43,2.57-7.25,4.18l7.36,4.61a12.68,12.68,0,0,1-1.38,1c-6.52,3-13,5.87-19.58,8.81a30.18,30.18,0,0,1-13.3,2.81,128.66,128.66,0,0,0-25.77,1.75,24.74,24.74,0,0,1-7.71-.3c-2.78-.39-3.51-2.37-1.94-4.72s3.87-2.71,6.33-2.92c2.83-.24,5.71-.26,8.5-.75a28.46,28.46,0,0,0,12.5-5.28,13.42,13.42,0,0,1,5.45-2c3.21-.63,6.49-.87,9.72-1.41a26.34,26.34,0,0,0,3.78-1.21l0-1c-2.38-.45-4.74-1.07-7.14-1.32-5.49-.57-10.91-.79-16.39.9-2.94.91-6.31.49-9.49.55a9.21,9.21,0,0,1-2.51-.77c.9-3,3.28-3.38,5.49-3.85s4.29-.54,6.36-1.08a20.11,20.11,0,0,0,3.76-1.84v-1.13c-2-.55-3.93-1.21-5.93-1.65-6.45-1.43-12.68.57-19,1.26-6.08.66-12.2,1.07-18.31,1.48a9.64,9.64,0,0,1-2.88-.71,12.91,12.91,0,0,1,1.47-2.81c1.74-2,3.86-3.77,5.41-5.92a9.63,9.63,0,0,0,1.48-4.74c.17-2.19-1.13-3.55-3.42-3.71-1.55-.11-3.1-.16-4.65-.2-6.07-.16-7.32-1.7-7.13-7.73s.1-12.07-.05-18.1c-.13-4.75-1.43-9-5.87-11.69a29.5,29.5,0,0,1-3.76-3.17c-2.59-2.21-5.21-4.21-9-3.72-1.19.15-2.47-.38-3.84-.62.16-.63.14-1.07.34-1.23,3.89-3.06,7.83-5.54,13.21-3.45,5.94,2.31,11,5.35,13.11,11.85a31.56,31.56,0,0,0,2,4.17,9.3,9.3,0,0,0,8,5.66c3.68.35,4.67,1.58,4.28,5.33-.33,3.15-1.23,6.25-1.78,9.38-.14.79-.16,2.17.22,2.36a3.67,3.67,0,0,0,2.6-.1c2.33-.9,4.6-2,6.9-3l.9.84c-1.3,3.66-2.55,7.35-3.94,11-.64,1.68-1.67,3.22-2.32,4.9-.87,2.23-.09,3.68,2.28,3.76a17.74,17.74,0,0,0,6.33-.82,27.82,27.82,0,0,0,14-11.08,13.17,13.17,0,0,0,2.3-9.38c-2.66-17.64.83-34.72,4.41-51.81a86.49,86.49,0,0,0,1.62-20.78c-.36-11.19.61-22.42.64-33.63a76.71,76.71,0,0,1,5.33-28.55,17.3,17.3,0,0,0,.58-11.34,55,55,0,0,1-.45-27.92,17.83,17.83,0,0,1,3.5-7,14.85,14.85,0,0,0,3.68-7.8c.34-2.58,1.1-4.52,4.24-4.95,2.31-.31,3.38-2.49,3.49-4.63a135.77,135.77,0,0,0,.27-15.75c-.42-6.61-1.39-13.19-2.28-19.76-.49-3.69-2.62-5.72-6.52-6.07-8.18-.74-13.88-5.31-17.73-12.31-1.86-3.39-3.23-7-5.09-10.46a100.22,100.22,0,0,0-6.05-9.84c-3.11-4.45-6.37-8.82-9.79-13a22.42,22.42,0,0,0-4.78-3.74c-2-1.37-4.19-2.43-6-4-2.93-2.43-2.84-4.93.36-6.91,5-3.12,10.47-4.1,16-1.42a32.13,32.13,0,0,1,6.41,4.34c6.63,5.56,14.2,9.46,22.17,12.61,5.85,2.32,8,1.17,10-4.91,2.49-7.42,2.14-15.09,2.2-22.79.11-14.48,0-29,3.49-43.23a25.11,25.11,0,0,1,6.07-11.84,16.15,16.15,0,0,1,3.6-2.9c4.25-2.36,8.72-.66,9.71,4.06a44.56,44.56,0,0,1,.53,10.53c-.33,9.65-1,19.3-1.27,29a36.19,36.19,0,0,0,1,8.19c.21,1,1.28,2.64,1.94,2.64,1.15,0,2.95-.8,3.34-1.74,1.72-4.1,3.62-8.27,4.4-12.6,2.47-13.81,7.74-26.63,13.16-39.41a19.07,19.07,0,0,1,7.67-8.89c5.72-3.54,12-1,12.89,5.63a32.65,32.65,0,0,1-.81,12.49c-2.4,8.71-5.38,17.28-8.47,25.78-1.77,4.85-4.36,9.38-6.32,14.16a42.77,42.77,0,0,0-2.08,7.71,12.45,12.45,0,0,0,.26,3.41Zm-84,21.27-.6.79a17.85,17.85,0,0,0,1,2.27q4.55,7.37,9.15,14.71a69.4,69.4,0,0,0,20.94,20.85c4.76,3.17,8.72,2.93,13-.77,3.94-3.37,7.2-7.52,8.46-12.47,1-4,3.34-5.49,6.64-6.2,6.22-1.32,11.26-4.71,16-8.64,1.64-1.36,3.16-1.54,4.6-.19a61.28,61.28,0,0,1,5.06,5.5c2.1,2.5,4.31,3.42,7.31,2.21a25.8,25.8,0,0,0,6.2-3.6c4.47-3.52,4.21-6.86-.58-10.07a13.93,13.93,0,0,1-2-1.13c-1-1-2.45-1.93-2.69-3.11-1.19-5.82-1.71-11.79,1.39-17.16,3-5.2,6.53-10.1,9.88-15.09,1.48-2.22,3.27-4.25,4.57-6.56a4.13,4.13,0,0,0-1.5-5.45c-2.16-1.18-3.82-.38-5.13,1.44a19.72,19.72,0,0,0-1.76,2.87c-3.58,7.45-7.12,14.93-10.69,22.38a32.68,32.68,0,0,1-2,3.89c-2,3.14-4.61,4.24-7.66,3.44-2.74-.72-4.51-2.77-4.52-6.49,0-8.5.82-16.91,5.17-24.48a44.61,44.61,0,0,0,5.43-17.4c.7-6,1.56-12,5.51-17,1-1.29,2-3.36-.18-4.48s-2.92.94-3.61,2.34c-1.87,3.77-3.36,7.76-5.4,11.44a27,27,0,0,0-3.6,15.9,10.78,10.78,0,0,1-4.39,10.35,9,9,0,0,0-1.86,1.79c-1.08,1.52-2.47,3-3,4.71a28.28,28.28,0,0,0-.7,14.58,7,7,0,0,1-4.52,8.47c-5,1.93-9.79.31-11.84-4.65a35,35,0,0,1-2.73-10.69c-.68-9.28-.89-18.6-1.15-27.9a36,36,0,0,1,.69-6.6c.6-3.8,1.47-7.57,1.91-11.39a3.59,3.59,0,0,0-1.71-2.77c-.55-.28-2.12.55-2.68,1.3-2.41,3.2-4.21,6.63-4.09,10.89.12,4.47,0,9-.23,13.45-.47,9.72-2,19.47-.39,29.18a84,84,0,0,1-.2,28.3c-1.23,7.11-2.74,8.15-9.67,5.79a8,8,0,0,0-1.7-.6c-2.36-.23-4.81-.83-7.07-.43-4.2.74-7.69-.1-10.67-3.1-2.67-2.7-5.23-5.52-8-8.06C-787.71,548.28-789.4,547.75-790.87,547ZM-755,651.2c2.22,4.71,6.14,6.91,11,6.36,4.7-.54,9.38-1.33,14.09-1.82,2.24-.23,4.08-.84,5-3a5.52,5.52,0,0,0-1-6.26,25.28,25.28,0,0,0-4.27-3.74c-4.74-3.11-6.7-7.57-6.39-13a78.37,78.37,0,0,1,1.42-9.11c.85-4.81,1.92-9.59,2.58-14.42.21-1.59-.57-3.32-.9-5l-.87.07c-.7,2.19-1.26,4.45-2.15,6.56s-1.73,4.45-3.26,6c-5.38,5.58-8,11.93-6.75,19.71.62,3.91,1.36,7.82,1.68,11.76s-1,5.11-4.82,5.54C-751.32,651-753,651.07-755,651.2Zm76.47,93.47c-.34-5.25-4.7-10.86-9.78-12-.83-.19-1.85.49-2.79.76a16.82,16.82,0,0,0,.77,2.27c1.31,2.5,2.64,5,4,7.43a13.32,13.32,0,0,0,2.64,3.83c1,.84,2.64,1,4,1.41C-679.28,747.15-678.91,745.91-678.54,744.67Zm-36-169.91c-6.18,1.7-7.77,3.64-6.46,8.39.4,1.46,1.68,3.63,2.75,3.75,1.57.19,3.64-.83,4.92-2,2-1.8,1.78-4.33.71-6.68C-713.16,577.08-713.86,576-714.55,574.76Zm31.48,151.83a1.39,1.39,0,0,0,.53-.07c2.69-1.78,5.44-3.46,8-5.45.48-.37.33-2.14-.12-2.93s-2.07-1.45-2.38-1.2a62.51,62.51,0,0,0-7.49,6.86C-685.6,725-684.55,726.18-683.07,726.59Zm5.91-232.78c2.12-1.2,5-6.9,5.17-10.54-2.73.9-5,2.12-6.07,4.79A5.3,5.3,0,0,0-677.16,493.81Zm-39.26,305.25c3,1.16,5.64.66,6.35-.95s-.35-3.84-2.67-5.25Zm11.16-24.43-.69-.5c-1.49,1.1-3.07,2.1-4.46,3.33A3.45,3.45,0,0,0-711,782a2.48,2.48,0,0,0,1.43,1.18c.28.07.88-.67,1.15-1.15.94-1.7,1.86-3.43,2.68-5.2A10,10,0,0,0-705.26,774.63ZM-656.45,523c-3.59-.3-7.54,4.3-6.49,7.55C-659.65,529.93-658.28,528.33-656.45,523Zm-91.92,82.21c.87,1.84,1.48,3.14,2.29,4.88l2.39-6.19Z" transform="translate(1331.47 -202.64)"/>
    <path class="cls-1" d="M-499.54,764.27l-28.56-9.38c-.94,2.67-1.78,5.07-2.73,7.79l-29.58-9.7c5.69-17.31,11.32-34.46,17-51.84l29.56,9.71c-.81,2.64-1.56,5.08-2.42,7.91l71.67,23.58,2.71-7.82,29.52,9.69c-.82,2.62-1.56,5.14-2.38,7.63-3.6,11-7.25,21.94-10.82,32.93a3.48,3.48,0,0,1-3,2.69q-33,7.35-65.86,14.88a8.07,8.07,0,0,0-2.86,1.12l29.4,9.69c.92-2.68,1.76-5.1,2.7-7.81l29.59,9.71-17,51.84-29.59-9.73c.84-2.67,1.61-5.1,2.48-7.89l-71.68-23.57c-.93,2.64-1.81,5.13-2.76,7.8l-29.53-9.7c1.15-3.59,2.22-7,3.34-10.43,3.35-10.15,6.77-20.28,10-30.47a4.25,4.25,0,0,1,3.63-3.28q32.32-7.23,64.6-14.6C-501.48,764.89-500.92,764.68-499.54,764.27Z" transform="translate(1331.47 -202.64)"/>
    <path class="cls-1" d="M-718.3,343.72l7.88,2.51L-719.55,376c-6.94-2.11-13.61-4.13-20.28-6.17-7-2.15-14-4.4-21-6.41A4,4,0,0,1-764,360q-7.89-32.16-15.94-64.27c-.16-.66-.38-1.3-.79-2.67l-8.83,28.79,7.85,2.54c-3,9.87-6,19.63-9.1,29.79l-52.15-16,9.11-29.79,7.94,2.31,22.13-72.18-7.87-2.56c3-9.93,6-19.71,9.13-29.77l16.87,5.19c7.75,2.38,15.48,4.82,23.27,7.06a4.43,4.43,0,0,1,3.57,3.68q8,32.67,16.1,65.3c.2.83.43,1.65.87,3.3l9.31-30.35-7.86-2.55,9.11-29.78,52.16,16c-3.06,10-6,19.75-9.12,29.78l-7.94-2.31C-703.53,295.54-710.89,319.53-718.3,343.72Z" transform="translate(1331.47 -202.64)"/>
    <path class="cls-1" d="M-880.71,234.77c3.52,24.94,7,49.69,10.56,74.73l8.21-1c1.45,10.21,2.88,20.35,4.36,30.78-5.2.76-10.2,1.51-15.2,2.23-9.4,1.33-18.81,2.57-28.19,4-1.91.3-2.64-.69-3.56-1.83l-41.28-50.9A5.51,5.51,0,0,0-948,291l4.06,28.89,8.21-1,4.39,30.82-54,7.64c-1.46-10.33-2.89-20.37-4.36-30.76l8.16-1.38-10.57-74.71-8.21,1-4.36-30.74c4.68-.69,9.08-1.37,13.49-2,9.4-1.34,18.8-2.61,28.18-4a4.3,4.3,0,0,1,4.6,1.79q20.92,26.05,42,52a6.5,6.5,0,0,0,2.37,2l-4.29-30.41-8.19,1.05c-1.45-10.22-2.89-20.33-4.39-30.82l54-7.66c1.46,10.28,2.9,20.47,4.36,30.82Z" transform="translate(1331.47 -202.64)"/>
    <path class="cls-1" d="M-518.1,497.09c-3.16,10-6.31,19.92-9.44,29.86-2,6.41-4,12.84-6.07,19.23a4.83,4.83,0,0,0,.35,4.37c1.33,2.21,2.4,4.57,3.76,7.22l-27.69,14.38c-10.1-19.48-20.11-38.8-30.23-58.31l27.56-14.29,2,2.93,5.44-17.49c-5-1.59-9.76-4.48-14.34.69,1.06,2.11,2.26,4.47,3.52,7L-591,507l-25.11-48.45,27.68-14.37,3.87,7.32,67-34.76-3.72-7.38L-493.53,395l25.11,48.46-27.68,14.36L-500,450.5l-17.15,8.92,26,8.35c-.53-1.26-.86-2-1.34-3.15l27.59-14.34,30.23,58.3L-462.33,523c-1.57-3-3-5.91-4.63-8.74a4,4,0,0,0-2-1.76q-24.12-7.75-48.3-15.36A4.08,4.08,0,0,0-518.1,497.09Z" transform="translate(1331.47 -202.64)"/>
    <path class="cls-1" d="M-1184.85,455.52l19.73,14.58,5-6.61,25.1,18.53-32.41,43.91c-8.43-6.22-16.72-12.34-25.1-18.54l4.86-6.69-60.73-44.87-5,6.61-25.08-18.53,11.13-15.08q19-25.72,38-51.48a5.93,5.93,0,0,1,4.38-2.67c8.72-1.16,17.41-2.59,26.13-3.76a5.7,5.7,0,0,1,3.74.88q12.6,9.1,25,18.48a5.91,5.91,0,0,1,1.93,3.3c.71,3.36,1.12,6.79,1.7,10.52,3.5-.53,6.86-1.18,10.25-1.46a6.71,6.71,0,0,1,4.2,1c7.16,5.11,14.2,10.4,21.29,15.63.61.46,1.26.86,2.11,1.43l5-6.48,25.06,18.51L-1126.15,470l-17.46-12.87-22.29-16.47c-2.4-1.76-7.21-1-9,1.37C-1178.16,446.43-1181.43,450.88-1184.85,455.52ZM-1210,437c3.59-4.85,7-9.41,10.33-14a3.59,3.59,0,0,0,.71-2.1c-.15-3.16-.72-6.09-4.07-7.71a34.91,34.91,0,0,1-4.39-3.18c-1.55-1.08-6.8-.5-7.91,1-3.52,4.67-7,9.4-10.55,14.28Z" transform="translate(1331.47 -202.64)"/>
    <path class="cls-1" d="M-1069.51,410.19l-9.29-2.26c-6.37-1.54-12.75-3-19.09-4.65a4.61,4.61,0,0,1-2.55-1.83q-23.7-38.59-47.24-77.27a4.23,4.23,0,0,1-.37-2.85q3.09-13.62,6.41-27.18a4.59,4.59,0,0,1,1.86-2.55q24.45-15.06,49-30a4.53,4.53,0,0,1,3.08-.41c8.9,2.07,17.78,4.2,26.64,6.47a5.66,5.66,0,0,1,3.1,2.29q23.45,38.13,46.7,76.38a5.65,5.65,0,0,1,.61,3.78q-3,13.24-6.33,26.4a5.32,5.32,0,0,1-2.12,2.93q-24.21,15-48.53,29.76C-1068.26,409.64-1069,409.92-1069.51,410.19Zm.92-37.34a6.56,6.56,0,0,0,1.44-.52c5.09-3.08,10.18-6.15,15.22-9.31,1.73-1.09,2.68-6,1.61-7.73q-16.58-27.17-33.18-54.31c-1.46-2.39-6.21-3.44-8.63-2q-6.86,4.16-13.69,8.36c-2.62,1.61-3.74,6.37-2.12,9,10.66,17.44,21.43,34.82,31.88,52.38C-1074.22,371.86-1071.67,372.21-1068.59,372.85Z" transform="translate(1331.47 -202.64)"/>
    <path class="cls-1" d="M-631.71,307.52l-6.29-5.38,20.06-23.9,77.79,65.37-23.48,28-23.86-20c1.15-1.44,2.15-2.71,3.29-4.15L-602.57,332l-14.19,16.86,4.11,3.56,3.57-3.95,23.71,19.93-27,32.15-23.73-19.93,3.36-4.2-4.11-3.61-14.34,17.05,18.38,15.46,3.59-4.1,23.88,20.05-23.6,28.11L-706.73,384l20.06-23.9,6.37,5.29Z" transform="translate(1331.47 -202.64)"/>
    <path class="cls-1" d="M-497.35,626.06l-22.45,1.81c.66,8,1.31,16,2,24l5.44-.33c.85,10.39,1.68,20.57,2.54,31l-36.51,3c-2.76-33.72-5.51-67.35-8.29-101.24l31-2.52c.27,2.8.51,5.27.79,8.21l75.23-6.15c-.17-2.83-.34-5.46-.52-8.27l31-2.52c2.77,33.73,5.52,67.3,8.3,101.21l-36.33,3c-.86-10.32-1.71-20.58-2.58-31l5.25-.61c-.63-7.82-1.26-15.67-1.92-23.93l-22.06,1.77c.16,1.86.3,3.54.44,5.33h5.27c.84,10.14,1.68,20.25,2.54,30.71L-500,663c-.85-10.35-1.69-20.46-2.53-30.64,1.83-.42,3.94-.33,5.05-1.35C-496.73,630.29-497.35,628.08-497.35,626.06Z" transform="translate(1331.47 -202.64)"/>
    <path class="cls-1" d="M-1206.87,778.57l-73,19.2c.7,2.72,1.36,5.25,2.08,8l7.86-1.9c2.62,10,5.21,19.77,7.88,29.93l-38,10c-9.88-37.59-19.73-75.06-29.67-112.84l38-10,7.88,30-7.78,2.2c.68,2.6,1.32,5.07,2,7.87l73-19.2c-.66-2.72-1.28-5.26-2-8l30.11-7.92c4.66,17.69,9.25,35.16,13.92,52.91l-30.12,7.94Z" transform="translate(1331.47 -202.64)"/>
    <path class="cls-1" d="M-783.61,988h-14.8c0,3.88,0,7.72.06,11.57,0,.38.85,1,1.38,1.05a17.13,17.13,0,0,0,3,0v17.55h-30.33v-17.36l4.32-.37V958.36l-4.34-.24V940.9H-794v17.21l-4.2.21v10.33h14.73V958.37l-4.23-.25V940.89h30.24v17.2l-4.32.26v42.1l4.34.43v17.29h-30.26V1001c.21-.11.35-.25.5-.26,3.93-.33,3.93-.33,3.92-4.45q0-3.75-.05-7.51A3.14,3.14,0,0,0-783.61,988Z" transform="translate(1331.47 -202.64)"/>
    <path class="cls-1" d="M-674.77,940.88v17.2l-4.27.29v3.12c0,13.91,0,27.82,0,41.73a5.57,5.57,0,0,1-1.9,4.5c-3.21,3-6.2,6.26-9.41,9.27a5.08,5.08,0,0,1-3.12,1.3q-15.17.15-30.32,0a5.48,5.48,0,0,1-3.34-1.41c-3.16-2.94-6.09-6.13-9.23-9.09a5.62,5.62,0,0,1-1.91-4.52c.07-13.91,0-27.81,0-41.72v-3.2l-4.31-.22V940.9h30.24v17.21l-4.52.22v37.73c0,3.11,1.44,4.58,4.53,4.6,2.67,0,5.36.1,8,0a3.44,3.44,0,0,0,3.63-3.57c.07-12.61,0-25.22,0-37.83a4,4,0,0,0-.24-.87l-4.2-.27V940.88Z" transform="translate(1331.47 -202.64)"/>
    <path class="cls-1" d="M-895.24,958.37l-4.43-.26V940.86c.69-.06,1.44-.16,2.19-.16,14.59,0,29.18,0,43.77,0a5.4,5.4,0,0,1,3.34,1.36c3.27,3.08,6.41,6.28,9.47,9.57a5.07,5.07,0,0,1,1.3,3.11q.12,24.74,0,49.47a4.72,4.72,0,0,1-1.19,2.91c-3.2,3.38-6.51,6.67-9.87,9.9a4.41,4.41,0,0,1-2.65,1.23c-15,.07-30,.05-45.06,0a9.91,9.91,0,0,1-1.38-.22v-17c.23-.16.37-.32.51-.33,4-.39,4-.39,4-4.4v-38Zm21.53-.13v42.41c3.32,0,6.43.21,9.5-.08a3.51,3.51,0,0,0,3.39-3.58q0-17.49,0-35a3.52,3.52,0,0,0-3.25-3.69C-867.21,958-870.41,958.24-873.71,958.24Z" transform="translate(1331.47 -202.64)"/>
    <path class="cls-1" d="M-1052.29,958.37l-4.43-.25V940.89h30.33v17.23l-4.49.22V996c0,3.27,1.4,4.68,4.69,4.69,2.59,0,5.18.05,7.77,0a3.77,3.77,0,0,0,3.76-3.75q0-18.78,0-37.58a6.07,6.07,0,0,0-.2-1l-4.22-.25v-17.2h30.24v17.15l-4.48.34v3.11c0,14,0,28,0,42a5.3,5.3,0,0,1-1.78,4.3c-3.14,3-6.07,6.15-9.23,9.09a5.46,5.46,0,0,1-3.33,1.41q-15.15.16-30.32,0a5.08,5.08,0,0,1-3.12-1.3c-3-2.83-5.81-5.93-8.88-8.71a6.87,6.87,0,0,1-2.38-5.63c.1-13.65,0-27.3,0-40.95Z" transform="translate(1331.47 -202.64)"/>
    <path class="cls-1" d="M-614.8,991.12h21.38c0,1.84,0,3.55,0,5.25,0,2.72,1.56,4.26,4.3,4.29s5.18,0,7.77,0,4.25-1.58,4.11-4.14a24,24,0,0,0-1.1-6.61c-.28-.78-2.07-1.43-3.18-1.45-6.3-.14-12.61,0-18.91-.13a5.53,5.53,0,0,1-3.32-1.4q-4.93-4.56-9.57-9.46a5.44,5.44,0,0,1-1.44-3.33c-.14-6.38-.13-12.77,0-19.16a5.13,5.13,0,0,1,1.24-3.17c3.25-3.46,6.63-6.81,10.06-10.09a3.85,3.85,0,0,1,2.47-1q15.68-.11,31.34,0a4.31,4.31,0,0,1,2.7,1.09c3.41,3.3,6.71,6.71,10,10.13a3.35,3.35,0,0,1,1,2c.09,4.65.05,9.3.05,14.14h-21.3c0-1.89,0-3.68,0-5.47,0-2.87-1.54-4.34-4.47-4.36h-7.25c-3.05,0-4.66,1.51-4.45,4.57.15,2.21-1.17,4.77,1.05,6.55a6.08,6.08,0,0,0,3.33,1.42c6.3.13,12.61,0,18.91.12a5.47,5.47,0,0,1,3.32,1.39c3.27,3.08,6.42,6.29,9.48,9.57a5.19,5.19,0,0,1,1.33,3.12c.12,6.38.12,12.78,0,19.16a5.1,5.1,0,0,1-1.29,3.13c-3.13,3.34-6.36,6.59-9.71,9.7a5.4,5.4,0,0,1-3.36,1.33q-15,.16-30,0a5.43,5.43,0,0,1-3.35-1.38c-3.35-3.12-6.54-6.4-9.74-9.67a3.9,3.9,0,0,1-1.31-2.1C-614.86,1000.51-614.8,995.88-614.8,991.12Z" transform="translate(1331.47 -202.64)"/>
    <path class="cls-1" d="M-936.48,991.08h-5.59V975.27h26.8c.07.82.19,1.65.19,2.47,0,8.63.08,17.27-.06,25.9a6.23,6.23,0,0,1-1.59,3.79c-3,3.24-6.1,6.35-9.33,9.34a5.85,5.85,0,0,1-3.55,1.51q-15,.18-30,0a5.46,5.46,0,0,1-3.34-1.36q-4.93-4.59-9.53-9.52a5.42,5.42,0,0,1-1.43-3.33q-.13-24.62,0-49.22a4.71,4.71,0,0,1,1.12-3q4.76-5.11,9.8-10a4.61,4.61,0,0,1,2.9-1.19q15.55-.13,31.09,0a4.32,4.32,0,0,1,2.71,1c3.37,3.21,6.64,6.54,9.9,9.88a3.82,3.82,0,0,1,1.29,2.12c.11,5.41.06,10.82.06,16.38h-21.38c0-2.68,0-5.25,0-7.81a3.84,3.84,0,0,0-4.16-4.12q-3.89,0-7.77,0a4,4,0,0,0-4.28,4.3q0,17,0,33.94a3.85,3.85,0,0,0,4.14,4.18c2.59,0,5.18,0,7.77,0,2.75,0,4.28-1.57,4.31-4.28C-936.46,994.74-936.48,993.11-936.48,991.08Z" transform="translate(1331.47 -202.64)"/>
    <path class="cls-1" d="M-1071.5,940.86c0,.76.09,1.35.09,1.93,0,6,0,11.9,0,18.1h-17.27l-.51-2.48h-13.17v12h2.78c.14-.83.28-1.65.44-2.63h16.93V991h-17l-.31-2.66h-2.89v12.16h13.21l.39-2.61h17.2v20.35h-56.69v-17.33l4.26-.39V958.38l-4.3-.3V940.86Z" transform="translate(1331.47 -202.64)"/>
    <path class="cls-1" d="M-781.47,756.1c-1.48,16.83-3.6,33.59-8.12,50-.62,2.25-1.09,4.53-1.58,6.81-.79,3.64-.71,7,1.53,10.39s.38,12.34-2.74,15c-1.33,1.12-2.66,1.07-3.52-.37a15.6,15.6,0,0,1-1.66-4.27c-1.61-6.6-3-13.25-4.73-19.84-.89-3.44-3.21-5.71-6.55-7.17-4.35-1.89-8.64-4-12.77-6.26a41.07,41.07,0,0,1-7.54-5.42c-5.68-5.16-6.93-12.43-3.64-19.4a9.32,9.32,0,0,1,8.51-5.78c2.83-.11,5.68.15,8.52.27,1.2,0,2.41.26,3.61.24,3.84-.07,5.18-2.09,3.54-5.62a26.74,26.74,0,0,0-3.29-5.25c-3.58-4.48-5-9.21-3.17-15,.5-1.55-.43-3.87-1.32-5.51-1.81-3.32-4.24-6.31-6.05-9.63-3.95-7.25-2.82-14.74,2.81-20.74,2.2-2.35,4.76-3.9,8-3A108,108,0,0,1-799,709.29a10.39,10.39,0,0,1,6.6,8.94c.74,6.08,1.27,12.19,2.13,18.25a7.49,7.49,0,0,0,2.16,4.39C-783.39,744.9-780.81,749.73-781.47,756.1ZM-796.67,794a14.42,14.42,0,0,0-4-9.82c-4.25-4.27-13.88-5.84-19.29-3.14a7.63,7.63,0,0,0-1.1.66c-2.51,1.91-2.57,4.27-.08,6.22a9.31,9.31,0,0,0,3.34,1.92c6.6,1.55,13.23,2.93,19.86,4.34A3.51,3.51,0,0,0-796.67,794Zm-4.43-65.2a9.08,9.08,0,0,0-6.54-8.83c-3.12-1-4.62.2-3.81,3.4A76.17,76.17,0,0,0-807.74,734c.28.66,2,1.24,2.87,1C-802.22,734.38-801.13,732.31-801.1,728.78Z" transform="translate(1331.47 -202.64)"/>
    <path class="cls-1" d="M-1143,940.86v17.22l-4.55.29v3.18c0,14,0,28-.06,42a6.16,6.16,0,0,1-1.55,3.79c-3,3.3-6.22,6.47-9.52,9.52a5.83,5.83,0,0,1-3.56,1.46q-12,.18-24.09,0a5.52,5.52,0,0,1-3.36-1.37c-3.4-3.18-6.66-6.52-9.92-9.86a3.81,3.81,0,0,1-1.18-2.14c-.09-5.86-.05-11.72-.05-17.75h21.33c0,3.29,0,6.46,0,9.63,0,2.25,1.81,3.8,4.23,3.87,4.09.11,6.15-.91,6.17-3.42.07-12.86,0-25.72,0-38.94h-6.34V940.86Z" transform="translate(1331.47 -202.64)"/>
    <path class="cls-1" d="M-629.49,958.09l-4.31.28v42.11l4.32.37v17.27h-30.24v-17.3l4.21-.29V958.39l-4.24-.33V940.85h30.26Z" transform="translate(1331.47 -202.64)"/>
    <path class="cls-1" d="M-1221.78,867.47l-22,11.57c1.34,2.64,2.59,5.13,3.94,7.81l-27.59,14.47-15.71-30c3.21-1.7,6.3-3.35,9.4-5,5.34-2.81,10.66-5.66,16-8.37a5.13,5.13,0,0,1,3.37-.56C-1243.66,860.63-1233.06,864-1221.78,867.47Z" transform="translate(1331.47 -202.64)"/>
    <path class="cls-1" d="M-862.84,852.91c-1.63.26-3.74.69-5.87.93-4.35.49-8.7,1-13.07,1.25a95.4,95.4,0,0,1-10.82-.27,4.37,4.37,0,0,1-3-1.39c-.34-.46.3-2.07.93-2.76,3.6-3.94,7.27-7.83,11-11.6,2.15-2.15,4.54-2.68,7.42-.82,4.75,3.08,10.35,2.72,15.68,3.57a58.83,58.83,0,0,1,12.81,3.77c1.78.73,3.32,2.71,4.32,4.49,1.43,2.53.18,4.58-2.75,4.5-3.68-.09-7.36-.7-11-1.08Z" transform="translate(1331.47 -202.64)"/>
    <path class="cls-1" d="M-1133.78,854.22a50.38,50.38,0,0,1-26.76-9.21,15.93,15.93,0,0,1-3.34-3.22c-2.75-3.45-2.73-7.15.42-10.25,6.13-6,13.68-9.47,22.06-11.16a3.36,3.36,0,0,1,1.54,0c1.09.33,2.13.8,3.19,1.21a18.61,18.61,0,0,1-2.22,2.46c-3.53,2.75-7.25,5.26-10.66,8.15q-3.59,3,0,6.16a45.44,45.44,0,0,0,7.82,5.42c3.69,2,7.66,3.56,11.37,5.56,1.4.75,2.41,2.22,3.59,3.37-1.54.52-3.07,1.11-4.65,1.52A9.43,9.43,0,0,1-1133.78,854.22Z" transform="translate(1331.47 -202.64)"/>
    <path class="cls-1" d="M-627.32,848.64a38.5,38.5,0,0,0,13.37-16.86c.46-1.11-.51-3.49-1.58-4.44-4.1-3.66-8.51-7-12.81-10.42-.77-.62-1.52-1.27-2.28-1.91l.15-.71a21,21,0,0,1,3.62-.13,50.59,50.59,0,0,1,20.41,6.89c3.89,2.41,6.68,5.63,7.58,10.29s-.34,8.82-4.35,11.6a37.26,37.26,0,0,1-19.32,6.54C-624.11,849.58-625.72,848.94-627.32,848.64Z" transform="translate(1331.47 -202.64)"/>
    <path class="cls-1" d="M-1087.2,825.71c-.52,0-1,0-1.55,0-2.24-.1-4.5-.52-5.38-2.83-1.09-2.86-1.52-5.92.29-8.69a2.9,2.9,0,0,1,2.42-1.06c2.89.63,6.12,1,8.5,2.51a15.6,15.6,0,0,0,14.25,1.83c7.62-2.43,15.24-4.88,23-6.91,5.08-1.33,10.61,4.36,9.87,9.6-.28,2-1.73,2.19-3.22,2.25-5.6.22-11.2.42-16.8.53-9.05.17-18.1.27-27,2.44a29.82,29.82,0,0,1-4.36.43Z" transform="translate(1331.47 -202.64)"/>
    <path class="cls-1" d="M-668.87,822a9,9,0,0,1,8.09-1.76,100.45,100.45,0,0,1,15,4.78c4.44,1.95,6.9,6,7.18,10.91a7.75,7.75,0,0,1-1.67,4.92c-4.78,5.75-17.72,8.27-24.38,5a28.74,28.74,0,0,1-3-1.84c3.54-3,7.09-5.84,10.35-9,2.47-2.36,2.46-3.25-.31-5.39-3.22-2.48-6.81-4.49-10.24-6.71A13.15,13.15,0,0,1-668.87,822Z" transform="translate(1331.47 -202.64)"/>
    <path class="cls-1" d="M-893.1,882c7.26-5.41,14.36-8.14,22.49-7.34,6.16.61,12.29,1.61,18.46,2.17a34.17,34.17,0,0,0,7.4-.45,45.64,45.64,0,0,0,4.49-1.17c1.71-.39,3.62-.76,4.61,1.14s1,4.34-.74,5.72a11.63,11.63,0,0,1-6,2.55,49.25,49.25,0,0,1-10.26-.74,48.12,48.12,0,0,0-13.83-.35c-5.94.82-12,.57-18.05.76a18.8,18.8,0,0,1-4.63-.1C-890.35,883.89-891.45,882.94-893.1,882Z" transform="translate(1331.47 -202.64)"/>
    <path class="cls-1" d="M-1105.2,850.42c-6.33-.46-14.48-6.54-15.69-12.46a6.05,6.05,0,0,1,1.49-4.58c4.05-4.32,9.41-6.6,14.91-8.42a5.77,5.77,0,0,1,3.5.44,3.62,3.62,0,0,1,1.91,1.88c.14.36-.84,1.31-1.46,1.79-4.73,3.57-5.25,7.44-1.57,12.11a3.41,3.41,0,0,1,.62.82c.62,1.87,2.18,4.25,1.54,5.5C-1100.7,849-1103.36,849.49-1105.2,850.42Z" transform="translate(1331.47 -202.64)"/>
    <path class="cls-1" d="M-1036.64,853.28c1.93-.65,3.7-1.3,5.51-1.83a9.28,9.28,0,0,1,8.53,1.22,14.41,14.41,0,0,0,6.8,2c6.78.54,13.6.64,20.39,1.12a16.07,16.07,0,0,1,5.13,1.63,2.67,2.67,0,0,1,1.28,1.94c0,.44-1,1.24-1.6,1.36-3.29.65-6.59,1.31-9.92,1.63-11.86,1.16-23.25-.25-33.6-6.72-.58-.37-1.19-.7-1.76-1.1C-1036.07,854.38-1036.15,854.09-1036.64,853.28Z" transform="translate(1331.47 -202.64)"/>
    <path class="cls-1" d="M-702.37,825.21a69.88,69.88,0,0,1,19.66,2.09c4.21,1.13,6.73,4.3,7.72,8.62.47,2.06.06,3.89-1.64,5.1-7,4.91-14.73,6.41-23.09,5.18-.29,0-.54-.36-1.31-.91,1.42-.77,2.58-1.35,3.69-2,2.67-1.55,5.58-2.82,7.9-4.78,3.56-3,3.2-6-.86-8.19a56.33,56.33,0,0,0-7.91-3.07c-1.42-.51-2.89-.87-4.34-1.31Z" transform="translate(1331.47 -202.64)"/>
    <path class="cls-1" d="M-1057.73,856c-8.11.63-14.6-2.94-20.66-7.67-1.73-1.35-1.7-2.57.28-3.43a17.41,17.41,0,0,1,5.22-1.31c7.76-.71,15.44-.83,21.78,4.84a20.54,20.54,0,0,1,2.94,3.24c1.23,1.72.58,3.07-1.37,3.42C-1052.24,855.59-1055,855.73-1057.73,856Z" transform="translate(1331.47 -202.64)"/>
    <path class="cls-1" d="M-886.79,897.57a31,31,0,0,1,16.24-5.75c3.18-.14,6.36-.4,9.55-.45,2.15,0,4.74-.69,5.64,2.29.83,2.78-.83,6.58-3.39,7.7a9.78,9.78,0,0,1-4,.93c-5.6-.09-11.21-.2-16.79-.65A9.23,9.23,0,0,1-886.79,897.57Z" transform="translate(1331.47 -202.64)"/>
    <path class="cls-1" d="M-884.5,800.13a13.45,13.45,0,0,1,7.06-5.53c5.51-2.09,11.28-2.34,17.06-2,3.2.17,6.89,3.82,7.65,6.92.46,1.88-.8,2.46-2.11,2.48-3.94,0-7.89,0-11.82-.27C-872.56,801.29-878.44,800.67-884.5,800.13Z" transform="translate(1331.47 -202.64)"/>
    <path class="cls-1" d="M-862.39,866.31c4.64-2.47,9.06-4.61,14.33-4.36,4.31.2,8.63-.07,12.94.09a13.79,13.79,0,0,1,5,1.17c1.69.74,1.81,2.35.14,3.12-8.38,3.82-16.84,7.43-26.16,2.73C-858.09,868.1-860.09,867.32-862.39,866.31Z" transform="translate(1331.47 -202.64)"/>
    <path class="cls-1" d="M-821.83,881.78a3.35,3.35,0,0,1-.77,0c-2-.35-4.62.49-5.64-2-.51-1.26,3.71-4.7,5.81-4.89,3.61-.31,7.27-.27,10.82-.88,2.17-.38,4.22-1.64,6.25-2.65a28.07,28.07,0,0,0,2.72-2c3.67-2.41,5.6-1.54,6,2.8a14.92,14.92,0,0,1-.2,4.11c-.3,1.69-1.35,2.53-3.22,2.74-5.64.61-11.26,1.43-16.89,2.17l-4.86.65Z" transform="translate(1331.47 -202.64)"/>
    <path class="cls-1" d="M-697.94,860.49c-.77-.1-1.47-.13-2.14-.28-2.32-.55-2.73-1.55-1.15-3.41,2.75-3.22,5.59-5.88,10.33-6.58,4.39-.65,8.59-2.8,12.78-4.54,2.07-.86,4.27-.72,5.5,1.05,1.46,2.12.33,3.67-1.43,4.72a56.22,56.22,0,0,1-8.22,4.27c-4.4,1.72-9,3.06-13.45,4.51A11.47,11.47,0,0,1-697.94,860.49Z" transform="translate(1331.47 -202.64)"/>
    <path class="cls-1" d="M-927.4,860.41a23.7,23.7,0,0,1,3.89.59,36.25,36.25,0,0,0,14.57,1.37,25.56,25.56,0,0,1,7.69.66c1.17.25,3,1.81,2.91,2.49a4.88,4.88,0,0,1-2.63,3.29c-3.84,1.24-7.89,1.83-11.77,3-4.29,1.28-7.35-.22-9.88-3.57-1.74-2.31-3.54-4.59-5.31-6.88Z" transform="translate(1331.47 -202.64)"/>
    <path class="cls-1" d="M-693.44,875.27c-2.45-.94-5-1.73-7.32-2.9a3.63,3.63,0,0,1-1.43-2.73c0-.46,1.38-1.33,2.22-1.45,4.24-.64,8.56-.88,12.77-1.68a70.39,70.39,0,0,0,9.32-2.84c2-.7,4-1.14,5.9.25,2.44,1.76,2.31,3.89-.43,5.07a34.52,34.52,0,0,1-3.93,1.24c-4.45,1.32-8.9,2.66-13.36,3.94-1.15.33-2.35.49-3.53.73Z" transform="translate(1331.47 -202.64)"/>
    <path class="cls-1" d="M-1081.56,549.27c-.51,3.15-.89,5.79-1.38,8.41-.81,4.31-3.82,7-7.18,9.38a3.73,3.73,0,0,1-4.78,0,4,4,0,0,1-1.57-4.81c1.5-3.94,3.14-7.83,4.93-11.64.93-2,6.76-4.11,8.72-3.25C-1082.15,547.63-1081.86,548.78-1081.56,549.27Z" transform="translate(1331.47 -202.64)"/>
    <path class="cls-1" d="M-1076.15,873.21c9.47-1.8,18.18-2.65,26.34,2.26a3.8,3.8,0,0,1,1.55,2.89c0,.81-1.17,1.89-2.06,2.28-6.34,2.77-17.84.4-22.74-4.53C-1073.89,875.26-1074.79,874.49-1076.15,873.21Z" transform="translate(1331.47 -202.64)"/>
    <path class="cls-1" d="M-885.85,873.43c-2.54-.67-5-1.12-7.31-2s-2.87-2.73-1.51-5c1.46-2.42,3.6-3.81,6.44-3.48,5.29.61,10.59,1.31,15.82,2.27a3.89,3.89,0,0,1,2.59,2.65c.08.86-1.36,2.44-2.39,2.7C-876.7,871.75-881.28,872.52-885.85,873.43Z" transform="translate(1331.47 -202.64)"/>
    <path class="cls-1" d="M-1047.9,833.07c-.08,5.38-1.51,7.16-6.83,7.77a22.7,22.7,0,0,1-6.63-.3,4.62,4.62,0,0,1-3.8-4.06,3.87,3.87,0,0,1,2.42-4.4c3.63-1.72,7.35-3.29,11.13-4.66,1.81-.66,2.9.74,3.38,2.33A16.54,16.54,0,0,1-1047.9,833.07Z" transform="translate(1331.47 -202.64)"/>
    <path class="cls-1" d="M-1104.85,855.64a8.19,8.19,0,0,1,7.63-1.46c4.75,1.41,9.48,2.92,14.28,4.12,4,1,6,2.26,5.32,4.37-1,2.89-3.75,2.18-6,2.24C-1092,865.12-1099.59,863.23-1104.85,855.64Z" transform="translate(1331.47 -202.64)"/>
    <path class="cls-1" d="M-1011.58,879.25c-2.37,2.51-5.46,3.06-8.48,3.3a84,84,0,0,1-11.33.05c-3.08-.17-5.91-1.29-7.7-4.06-.89-1.39-.88-2.59,1.1-3.08,8.65-2.11,16.87,0,25,2.53a3.07,3.07,0,0,1,.87.54A4.59,4.59,0,0,1-1011.58,879.25Z" transform="translate(1331.47 -202.64)"/>
    <path class="cls-1" d="M-1071.16,573.91a10.7,10.7,0,0,1,4.46,8c.23,1.88.54,3.75.88,5.61a7.84,7.84,0,0,1-2.74,7.66c-2.52,2.24-6.2,1.53-7.17-1.67a14.23,14.23,0,0,1-.28-7.54C-1074.89,581.93-1072.92,578.15-1071.16,573.91Z" transform="translate(1331.47 -202.64)"/>
    <path class="cls-1" d="M-820.76,542.38a12.61,12.61,0,0,1-2.2,10.5,51.41,51.41,0,0,1-5.22,6.37c-1,1-2.71,2.08-3.78,1.81a5.07,5.07,0,0,1-3.15-3.19c-1.38-6.22-.47-8.12,4.55-10.85l.23-.11c1.68-.65,3.4-1.21,5-2C-823.82,544.25-822.45,543.34-820.76,542.38Z" transform="translate(1331.47 -202.64)"/>
    <path class="cls-1" d="M-694.27,448.64c2-2,3.93-4.26,6.15-6.1,4.4-3.66,7.69-3.67,12.41-.5a3.53,3.53,0,0,1,1.68,4.17,7.21,7.21,0,0,1-9.41,5.51c-1.63-.53-3.15-1.41-4.79-1.88C-690.07,449.31-692,449.08-694.27,448.64Z" transform="translate(1331.47 -202.64)"/>
    <path class="cls-1" d="M-673.58,702.61c1.64-.94,2.85-2,4.25-2.37A65.19,65.19,0,0,1-659,698.38a6.26,6.26,0,0,1,6.54,5.66,6.36,6.36,0,0,1-5.65,6.81c-1.13.12-3-.27-3.44-1.05-2.5-4.26-6.76-5.3-11-6.57A10.43,10.43,0,0,1-673.58,702.61Z" transform="translate(1331.47 -202.64)"/>
    <path class="cls-1" d="M-786.55,504c-4.73-.37-6.45-1.59-7.64-5.4-.67-2.13-.1-3.68,2-4.61,5.87-2.55,10.79-1.7,15.08,2.81a2.49,2.49,0,0,1,.19,2.38C-779.56,501.86-782.08,505-786.55,504Z" transform="translate(1331.47 -202.64)"/>
    <path class="cls-1" d="M-896,671.69a7.69,7.69,0,0,1,1.45-1.69c4.59-3,9.61-4.3,15-3,3.55.87,4.87,3.5,3.71,6.36-1.56,3.8-5.09,5.46-8.25,3.77-1.43-.77-2.67-1.94-4.15-2.59C-890.68,673.48-893.23,672.69-896,671.69Z" transform="translate(1331.47 -202.64)"/>
    <path class="cls-1" d="M-789.71,481.59c0,.56,0,.38,0,.22,1.82-6.52,3.63-7.06,9.39-3.49,5.2,3.22,6.47,8.39,7.54,13.73.14.72-.38,1.57-.6,2.35-.86-.24-2-.23-2.54-.77-2.8-2.67-5.37-5.58-8.21-8.2A49.34,49.34,0,0,0-789.71,481.59Z" transform="translate(1331.47 -202.64)"/>
    <path class="cls-1" d="M-913.71,460.35c0,3.37-.95,4.88-3.09,5.13a7.09,7.09,0,0,1-6.67-3.92c-1.32-3.22-2.93-6.32-4.36-9.5a19,19,0,0,1-.75-2.5,9.81,9.81,0,0,1,2.61-.69C-920.23,449-913.65,455.23-913.71,460.35Z" transform="translate(1331.47 -202.64)"/>
    <path class="cls-1" d="M-1089.63,763.56c-3.87.23-4.23-.14-3.8-3.94.58-5.19,2.38-6.92,7.7-6.85a43.14,43.14,0,0,1,7.91,1,3.21,3.21,0,0,1,2.15,1.88,3,3,0,0,1-1.13,2.58C-1080.9,760.72-1084.74,764.22-1089.63,763.56Z" transform="translate(1331.47 -202.64)"/>
    <path class="cls-1" d="M-800.1,702.58c-1.94,0-3.6.4-4.94-.08A76.23,76.23,0,0,1-815.4,698a4.61,4.61,0,0,1-1.73-6.86c2.12-3,5.16-3.8,7.7-1.44a43,43,0,0,1,5.23,6.64C-802.95,698-801.85,699.88-800.1,702.58Z" transform="translate(1331.47 -202.64)"/>
    <path class="cls-1" d="M-931.34,439.4c.37-1.13.65-2.12,1-3.07,2.78-7.13,4.32-7.81,12.6-5.88,2.73.64,3.71,2.58,3.31,5.32-.43,2.91-2,4.43-4.77,4.44a28.8,28.8,0,0,1-4.1-.48c-1.28-.18-2.55-.52-3.83-.59A41.22,41.22,0,0,0-931.34,439.4Z" transform="translate(1331.47 -202.64)"/>
    <path class="cls-1" d="M-740.24,457.19c0-5.12-.2-10.26.09-15.37.13-2.37,4.16-5.14,6.55-5a2.24,2.24,0,0,1,1.64,1.2c1.73,6,2.83,10.3-4.11,14.45-.86.52-1.34,1.69-2,2.58s-1.15,1.67-1.72,2.5Z" transform="translate(1331.47 -202.64)"/>
    <path class="cls-1" d="M-871.79,813.39a76.92,76.92,0,0,1-3.62,8c-1.41,2.47-4,2.27-5.59-.16-1-1.57-1.85-3.24-2.75-4.87a1.12,1.12,0,0,1-.07-.49c-.06-2,4.4-8.32,6.4-9C-874.42,805.81-871.68,808.25-871.79,813.39Z" transform="translate(1331.47 -202.64)"/>
    <path class="cls-1" d="M-1043.82,842.26c3-2.39,5.69-4.9,9.93-3.9,1.57.37,3.25.21,4.87.43,1.25.16,2.75.19,3.66.9,1.17.91,1.86,2.44,2.76,3.71-1.12.79-2.15,2-3.38,2.3-5.74,1.28-11.45,1.7-16.51-2.24C-1042.88,843.15-1043.23,842.8-1043.82,842.26Z" transform="translate(1331.47 -202.64)"/>
    <path class="cls-1" d="M-709.62,736c3.69,2.65,4.5,6.41,4.18,10.34a24.85,24.85,0,0,1-2,7.41c-1.1,2.6-3.29,2.68-4.54.14C-715.11,747.56-715.44,741.56-709.62,736Z" transform="translate(1331.47 -202.64)"/>
    <path class="cls-1" d="M-984,430.61c4.43-.37,8.84.22,12.24,3.54,2.39,2.34,2.23,5.68,1.56,8.78-.13.63-1.1,1.34-1.82,1.56-2.14.63-6.56-1.65-7.48-3.71C-980.91,437.53-982.34,434.27-984,430.61Z" transform="translate(1331.47 -202.64)"/>
    <path class="cls-1" d="M-995,883.72a15.9,15.9,0,0,1-10.91-5.06c-.55-.54-.16-2-.2-3.08l2.3.12c3.14.17,6.28.32,9.41.5a36.57,36.57,0,0,1,6.13.52A3.56,3.56,0,0,1-986,879a3.38,3.38,0,0,1-1.84,2.58C-990.42,882.61-993.19,883.21-995,883.72Z" transform="translate(1331.47 -202.64)"/>
    <path class="cls-1" d="M-1062.67,473a48.3,48.3,0,0,1-6.64-2.37c-2.26-1.15-2.19-3-.08-4.41a36.45,36.45,0,0,1,4.29-2.36,5,5,0,0,1,5.61.52,62.15,62.15,0,0,1,5.34,4.49c1.72,1.71,1.42,2.61-.89,3.05S-1059.48,472.51-1062.67,473Z" transform="translate(1331.47 -202.64)"/>
    <path class="cls-1" d="M-938.3,579.78c.48,3.38.94,6.78,1.45,10.16.32,2.2.59,4.37-1.75,5.73-1.87,1.08-5.24.72-6.56-.65a5.83,5.83,0,0,1-.65-6.77c2.11-3.1,4.6-6,6.93-8.9Z" transform="translate(1331.47 -202.64)"/>
    <path class="cls-1" d="M-845.83,818.75c6.35-.69,11,4.48,9.29,10.72a20.17,20.17,0,0,1-1.37,3.89c-1.21,2.38-3.34,2.39-4.76.11a5.64,5.64,0,0,1-.81-1.89C-844.3,827.3-845,823-845.83,818.75Z" transform="translate(1331.47 -202.64)"/>
    <path class="cls-1" d="M-1085.48,519.75a36.14,36.14,0,0,1,.9-4.79c1.25-3.83,4.1-5.17,7.93-3.9,2.29.76,3.18,2.52,1.83,4.63a70,70,0,0,1-6.1,8c-.62.73-2.28,1.48-2.82,1.16-.82-.49-1.15-1.9-1.5-3a6.74,6.74,0,0,1,0-2.06Z" transform="translate(1331.47 -202.64)"/>
    <path class="cls-1" d="M-647.14,806.31a74.44,74.44,0,0,1,7.7,3.34c1.92,1.09,1.89,2.73.37,4.31-3.76,3.93-11.79,2.74-14-2.14a2.12,2.12,0,0,1,.38-2C-651,808.57-649.11,807.53-647.14,806.31Z" transform="translate(1331.47 -202.64)"/>
    <path class="cls-1" d="M-893.76,826.73c-2.28-.72-4.59-1.38-6.84-2.19a2,2,0,0,1-1-3.29,18,18,0,0,1,3.89-4.45c2.87-2,5.12.48,7.14,1.94a7,7,0,0,1,2.55,4.34C-887.82,825.16-890.32,826.42-893.76,826.73Z" transform="translate(1331.47 -202.64)"/>
    <path class="cls-1" d="M-1111.65,861.88a12.68,12.68,0,0,1,1.56.28c4,1.47,8,2.82,11.82,4.53,1.12.5,1.79,2,2.66,3.11-1.18.74-2.3,2-3.55,2.1a9,9,0,0,1-4.91-.89,80,80,0,0,1-8.34-5.2c-.65-.45-1.48-1.72-1.27-2.13C-1113.25,862.84-1112.18,862.32-1111.65,861.88Z" transform="translate(1331.47 -202.64)"/>
    <path class="cls-1" d="M-1124.34,821.26c1.29-6.63,20.64-9.11,26.57-4C-1106.57,819.73-1115.78,816.23-1124.34,821.26Z" transform="translate(1331.47 -202.64)"/>
    <path class="cls-1" d="M-1090.18,870.48c1.51-1.85,3.78-1.5,6-1.11a12.11,12.11,0,0,1,2.89,1.1,4.7,4.7,0,0,1,2,6.87c-.09.14-.23.37-.35.37-1.73,0-3.58.37-5.16-.13s-4.12-.56-4.47-3.23C-1089.45,873.13-1089.84,872-1090.18,870.48Z" transform="translate(1331.47 -202.64)"/>
    <path class="cls-1" d="M-722.8,687.62a41.39,41.39,0,0,1-.85,5.1,2.76,2.76,0,0,1-1.78,1.58c-.44.1-1.3-.74-1.64-1.35a21.18,21.18,0,0,1-2.62-5.56,11.48,11.48,0,0,1,.41-5.69c.28-.85,2-1.71,3-1.68a3.59,3.59,0,0,1,2.55,2.05A28.77,28.77,0,0,1-722.8,687.62Z" transform="translate(1331.47 -202.64)"/>
    <path class="cls-1" d="M-658.12,859.43c3.21-1.9,6.33-4,9.68-5.58a3.09,3.09,0,0,1,4.27,1.35c.72,1.5-.28,4.56-1.94,5.17a16.23,16.23,0,0,1-11.7.1Z" transform="translate(1331.47 -202.64)"/>
    <path class="cls-1" d="M-853.84,806.81c-.69,2.74-1.18,5.05-1.86,7.3a13.3,13.3,0,0,1-1.79,3.92,2.73,2.73,0,0,1-2.39.88c-2.5-1-3-3.5-3.16-5.74a4.29,4.29,0,0,1,1.7-3.47A53.68,53.68,0,0,1-853.84,806.81Z" transform="translate(1331.47 -202.64)"/>
    <path class="cls-1" d="M-1118.13,859.54c-2.06.05-3.95-2.54-3.86-5.45.07-1.9,1.32-2.7,3.08-2.76,2.47-.08,5.51,2.06,5.48,3.81C-1113.47,857.75-1115.32,859.48-1118.13,859.54Z" transform="translate(1331.47 -202.64)"/>
    <path class="cls-1" d="M-666.42,866.49c-1.11-.87-2.68-1.56-3.16-2.69-.3-.74.8-2.35,1.64-3.21,1.36-1.39,3.14-2.4,5.06-1.09,1,.7,2.57,2.09,2.4,2.79-.32,1.25-1.64,2.38-2.78,3.24-.67.5-1.8.38-2.73.54Z" transform="translate(1331.47 -202.64)"/>
    <path class="cls-1" d="M-636.49,856.86c-.76-.92-1.74-1.58-1.71-2.18.07-1,.51-2.52,1.26-2.91a46.74,46.74,0,0,1,6.92-2.62c.32-.11,1.16.29,1.18.52.1.81.26,2.08-.17,2.4C-631.28,853.72-633.72,855.13-636.49,856.86Z" transform="translate(1331.47 -202.64)"/>
    <path class="cls-1" d="M-978.18,673c.59,4.11,1.15,8.23,1.77,12.33.2,1.38,1.23,2.94-.93,3.64-2.37.76-5.13-.36-5.67-2.28a7,7,0,0,1-.18-2c.14-4.13.32-8.25.48-12.38a4.18,4.18,0,0,1,.06-.51c.39-1.85.53-4.37,2.86-4.3,2.72.08,2.3,2.71,2.37,4.66,0,.25,0,.51,0,.77Z" transform="translate(1331.47 -202.64)"/>
    <path class="cls-1" d="M-985.43,654l7.45.5c-.84,3.2-3,5.82-4.31,5.3C-984.52,658.91-985,656.77-985.43,654Z" transform="translate(1331.47 -202.64)"/>
  </g>
</svg>
